<?xml version="1.0" standalone="no"?><!DOCTYPE svg PUBLIC "-//W3C//DTD SVG 1.1//EN" "http://www.w3.org/Graphics/SVG/1.1/DTD/svg11.dtd"><svg t="1596766058956" class="icon" viewBox="0 0 1024 1024" version="1.1" xmlns="http://www.w3.org/2000/svg" p-id="1681" xmlns:xlink="http://www.w3.org/1999/xlink" width="200" height="200"><defs><style type="text/css"></style></defs><path d="M505.352603 430.540733L505.352603 430.540733c-19.8767 19.787672-41.068348 50.251497-41.202401 84.188424-0.128937 32.638351 18.516726 58.074673 41.202401 84.605933l0 0L776.514419 876.66642c32.414247 32.966832 32.414247 86.381369 0 119.340015-16.207124 16.48750899-37.420261 24.731264-58.658981 24.731264-21.22951 0-42.442648-8.243755-58.649771-24.731264L246.428505 574.612013c-32.422434-32.975019-32.422434-86.373183 1e-8-119.348202L659.205667 33.861202c32.406061-32.975019 84.902692-32.975019 117.308753 0 32.41424701 32.958646 32.414247 86.373183-1e-8 119.340015L505.352603 430.540733z" p-id="1682"></path></svg>