<?xml version="1.0" standalone="no"?><!DOCTYPE svg PUBLIC "-//W3C//DTD SVG 1.1//EN" "http://www.w3.org/Graphics/SVG/1.1/DTD/svg11.dtd"><svg t="1596766064184" class="icon" viewBox="0 0 1024 1024" version="1.1" xmlns="http://www.w3.org/2000/svg" p-id="1819" xmlns:xlink="http://www.w3.org/1999/xlink" width="200" height="200"><defs><style type="text/css"></style></defs><path d="M518.647397 593.459267 518.647397 593.459267c19.8767-19.787672 41.068348-50.251497 41.202401-84.188424 0.128937-32.638351-18.516726-58.074673-41.202401-84.605933l0 0L247.485581 147.33358c-32.414247-32.966832-32.414247-86.381369 0-119.340015 16.207124-16.487509 37.420261-24.731264 58.658981-24.731264 21.22951 0 42.442648 8.243755 58.649771 24.731264L777.571495 449.387987c32.422434 32.975019 32.422434 86.373183 0 119.348202L364.794333 990.138798c-32.406061 32.975019-84.902692 32.975019-117.308753 0-32.414247-32.958646-32.414247-86.373183 0-119.340015L518.647397 593.459267z" p-id="1820"></path></svg>